<svg width="180" height="39" viewBox="0 0 180 39" fill="none" xmlns="http://www.w3.org/2000/svg">
<path d="M37.7239 17.132C38.3864 16.7808 38.6678 16.2752 38.4337 15.5803C38.1996 14.8853 37.5993 14.7957 36.9592 14.7932C32.3837 14.7807 27.8058 14.7484 23.2303 14.7558C22.6574 14.7558 22.4831 14.6089 22.5229 14.041C22.5727 13.2738 22.5354 12.5017 22.5354 11.5727C23.0335 12.0957 23.442 12.5167 23.843 12.9401C23.975 13.0796 24.0796 13.2639 24.2988 13.2664C25.2428 13.2664 26.1868 13.3012 27.1308 13.2664C27.5916 13.2464 27.6762 12.8355 27.3076 12.4245C26.7098 11.757 26.0871 11.1144 25.4894 10.4469C25.2821 10.2857 25.1369 10.0578 25.0784 9.80176C25.4271 9.80176 25.7559 9.80176 26.0747 9.80176C26.3487 9.80176 26.6177 9.80175 26.7447 9.4929C26.8717 9.18405 26.6675 8.99475 26.4956 8.80048C25.2229 7.43805 23.9576 6.06068 22.6723 4.72066C21.3398 3.32087 21.3224 3.32336 19.9973 4.76549C18.835 6.02912 17.6834 7.30189 16.5426 8.58378C16.311 8.83286 15.9125 9.08193 16.0694 9.49042C16.2487 9.96366 16.7245 9.77436 17.0906 9.79926C17.2027 9.79926 17.3148 9.79926 17.5315 9.79926C17.0657 10.5938 16.4654 11.1492 15.9424 11.7669C15.6872 12.0245 15.4508 12.3 15.235 12.5914C15.0258 12.9326 15.0382 13.2738 15.5688 13.2813C16.4405 13.2938 17.3123 13.2664 18.184 13.2813C18.3037 13.276 18.4204 13.2425 18.5247 13.1837C18.6289 13.1248 18.7179 13.0422 18.7843 12.9426C19.1828 12.5216 19.5714 12.0957 20.0994 11.5253C20.0994 12.6287 20.0994 13.5777 20.0994 14.5142C20.0994 14.8654 19.7731 14.7259 19.5888 14.7284C18.3783 14.7434 17.1678 14.7284 15.9573 14.7459C15.0009 14.7658 14.5077 15.3935 14.697 16.2627C14.8066 16.7609 15.1727 16.9477 15.773 17.1444C13.8968 17.3657 12.1507 18.2155 10.8189 19.5555C8.58973 21.7423 7.83006 24.5071 7.75534 27.5258C7.7105 29.486 7.75534 31.4487 7.73292 33.4089C7.73292 33.658 7.982 34.1562 7.42158 34.1014C6.96328 34.064 6.37298 34.4476 6.09401 33.6481C5.46137 31.8473 4.84865 30.044 4.56719 28.151C3.60079 21.7498 4.91341 15.8069 8.52248 10.4817C12.2586 4.96225 17.4443 1.39303 24.0871 0.297111C30.2367 -0.716618 35.8583 0.912319 40.8971 4.44169C46.4813 8.35215 49.7192 13.8143 50.8326 20.5119C51.4378 24.1384 51.0692 27.735 50.0854 31.2644C49.8737 32.0316 49.6171 32.7887 49.4328 33.5609C49.2385 34.3828 48.6059 34.0291 48.1476 34.059C47.5797 34.0989 47.8362 33.6132 47.8288 33.3691C47.754 31.2196 47.9957 29.0452 47.5448 26.9256C46.7229 23.055 44.9868 19.7846 41.2283 17.9714C40.1366 17.4358 38.9397 17.1491 37.7239 17.132ZM32.187 5.38817C34.1223 5.96852 35.0239 6.95983 35.0513 8.4443C35.0569 8.81829 34.9833 9.18923 34.8352 9.53268C34.687 9.87613 34.4678 10.1843 34.192 10.4369C33.6366 10.9898 32.9118 11.1991 32.1023 11.3062C33.2829 12.2676 34.8919 12.1455 36.0202 11.0571C36.6289 10.4627 37.0104 9.67413 37.0986 8.82799C37.1869 7.98184 36.9763 7.13149 36.5034 6.42432C35.4423 4.93735 33.8134 4.51642 32.187 5.38817Z" fill="#1A365D"/>
<path d="M37.4638 17.132C38.1264 16.7808 38.4078 16.2752 38.1737 15.5803C37.9396 14.8853 37.3393 14.7957 36.6992 14.7932C32.1237 14.7807 27.5457 14.7484 22.9703 14.7558C22.3974 14.7558 22.223 14.6089 22.2629 14.041C22.3127 13.2738 22.2753 12.5017 22.2753 11.5727C22.7735 12.0957 23.182 12.5167 23.583 12.9401C23.715 13.0796 23.8196 13.2639 24.0388 13.2664C24.9828 13.2664 25.9268 13.3012 26.8708 13.2664C27.3315 13.2464 27.4162 12.8355 27.0476 12.4245C26.4498 11.757 25.8271 11.1144 25.2294 10.4469C25.0221 10.2857 24.8769 10.0578 24.8184 9.80176C25.1671 9.80176 25.4959 9.80176 25.8147 9.80176C26.0887 9.80176 26.3577 9.80175 26.4847 9.4929C26.6117 9.18405 26.4075 8.99475 26.2356 8.80048C24.9628 7.43805 23.6976 6.06068 22.4123 4.72066C21.0798 3.32087 21.0624 3.32336 19.7373 4.76549C18.5749 6.02912 17.4234 7.30189 16.2826 8.58378C16.051 8.83286 15.6525 9.08193 15.8094 9.49042C15.9887 9.96366 16.4645 9.77436 16.8306 9.79926C16.9427 9.79926 17.0548 9.79926 17.2715 9.79926C16.8057 10.5938 16.2054 11.1492 15.6824 11.7669C15.4272 12.0245 15.1908 12.3 14.975 12.5914C14.7658 12.9326 14.7782 13.2738 15.3088 13.2813C16.1805 13.2938 17.0523 13.2664 17.924 13.2813C18.0437 13.276 18.1604 13.2425 18.2646 13.1837C18.3689 13.1248 18.4579 13.0422 18.5243 12.9426C18.9228 12.5216 19.3114 12.0957 19.8394 11.5253C19.8394 12.6287 19.8394 13.5777 19.8394 14.5142C19.8394 14.8654 19.5131 14.7259 19.3288 14.7284C18.1183 14.7434 16.9078 14.7284 15.6973 14.7459C14.7409 14.7658 14.2477 15.3935 14.437 16.2627C14.5466 16.7609 14.9127 16.9477 15.513 17.1444C13.6368 17.3657 11.8907 18.2155 10.5589 19.5555C8.32972 21.7423 7.57005 24.5071 7.49533 27.5258C7.45049 29.486 7.49533 31.4487 7.47291 33.4089C7.47291 33.658 7.72199 34.1562 7.16157 34.1014C6.70327 34.064 6.11297 34.4476 5.834 33.6481C5.20136 31.8472 4.58864 30.044 4.30718 28.151C3.34078 21.7498 4.6534 15.8069 8.26247 10.4817C11.9986 4.96225 17.1843 1.39303 23.8271 0.297111C29.9767 -0.716618 35.5983 0.912319 40.637 4.44169C46.2213 8.35215 49.4592 13.8143 50.5726 20.5119C51.1778 24.1384 50.8092 27.735 49.8254 31.2644C49.6136 32.0316 49.3571 32.7887 49.1728 33.5609C48.9785 34.3828 48.3459 34.0291 47.8876 34.059C47.3197 34.0989 47.5762 33.6132 47.5688 33.3691C47.494 31.2196 47.7356 29.0452 47.2848 26.9256C46.4629 23.055 44.7268 19.7846 40.9683 17.9714C39.8766 17.4358 38.6797 17.1491 37.4638 17.132ZM31.9269 5.38817C33.8622 5.96852 34.7639 6.95983 34.7913 8.4443C34.7969 8.81829 34.7233 9.18923 34.5752 9.53268C34.427 9.87613 34.2078 10.1843 33.932 10.4369C33.3765 10.9898 32.6517 11.1991 31.8423 11.3062C33.0229 12.2676 34.6319 12.1455 35.7602 11.0571C36.3689 10.4627 36.7504 9.67413 36.8386 8.82799C36.9269 7.98184 36.7163 7.13149 36.2434 6.42432C35.1823 4.93735 33.5534 4.51642 31.9269 5.38817Z" fill="#1A365D"/>
<path d="M33.2905 22.4164C33.2531 22.8074 33.2133 23.196 33.1759 23.5845C32.9642 23.7738 33.0265 24.0279 33.0265 24.262C33.0265 27.2957 33.0265 30.3278 33.0265 33.3582C33.0265 33.5923 32.9642 33.8563 33.1635 34.0431C32.2543 34.3246 31.3228 34.1029 30.4037 34.1552C30.06 34.1752 30.1397 33.8738 30.1397 33.6745C30.1397 32.464 30.1646 31.256 30.1696 30.0455C30.1696 27.9807 29.0238 26.678 26.9839 26.4414C26.6952 26.4102 26.405 26.3952 26.1147 26.3966C21.1797 26.3966 16.2455 26.3916 11.3122 26.3816C10.2686 26.3816 10.2437 26.3816 10.5102 25.3355C10.7767 24.2894 11.0856 23.2433 11.7805 22.3716C12.4854 22.7676 13.25 22.4737 13.9798 22.5608C13.6909 23.6792 14.2438 24.4887 15.3198 24.4862C19.0111 24.4862 22.704 24.4754 26.3986 24.4538C27.5917 24.4538 28.1421 23.5422 27.644 22.4239C29.5184 22.1842 31.4155 22.1816 33.2905 22.4164Z" fill="#4299E1"/>
<path d="M10.3331 31.4895C10.3331 30.812 10.3605 30.132 10.3331 29.457C10.3057 28.9589 10.4925 28.792 10.9981 28.797C13.7055 28.8169 16.4155 28.8094 19.1229 28.8094C21.519 28.8094 23.9126 28.8094 26.3087 28.8094C27.3448 28.8094 27.7458 29.2129 27.7558 30.2615C27.7657 31.3101 27.7309 32.3911 27.7558 33.4547C27.7707 33.9752 27.6263 34.1894 27.0634 34.172C25.8329 34.1346 24.5975 34.1446 23.3646 34.172C23.1752 34.1969 22.9829 34.1608 22.8154 34.069C22.6479 33.9772 22.514 33.8344 22.4331 33.6614C20.4405 29.9975 15.0007 30.0922 13.1725 33.6987C12.9708 34.0973 12.6943 34.1645 12.3033 34.172C10.3107 34.2094 10.3107 34.2168 10.3306 32.2292C10.3306 31.9801 10.3306 31.746 10.3306 31.5044L10.3331 31.4895ZM12.8986 31.4446C13.1651 31.4446 13.4291 31.4322 13.6931 31.4446C14.1315 31.472 14.119 31.1831 14.1315 30.8767C14.1439 30.5704 14.0244 30.3786 13.6757 30.401C13.1476 30.416 12.6188 30.416 12.0891 30.401C11.7354 30.401 11.6358 30.5629 11.6407 30.8867C11.6457 31.2105 11.7005 31.4596 12.1065 31.4446C12.3705 31.4372 12.6345 31.4446 12.8986 31.4446Z" fill="#1A365D"/>
<path d="M13.975 22.5632C13.2452 22.476 12.4805 22.7699 11.7756 22.3739C12.7719 20.8794 14.0845 19.9205 15.9501 19.918C23.3343 19.9047 30.7235 19.8956 38.1176 19.8906C40.165 19.8906 41.7242 20.8072 42.9048 22.4362C42.7081 22.6304 42.459 22.5756 42.2274 22.5657C41.4478 22.5258 40.6682 22.4685 39.8886 22.4187C38.9645 21.6715 38.5236 21.6491 37.4227 22.2942C36.7901 22.4685 36.1251 22.202 35.4949 22.4262C34.673 21.7039 33.9282 21.7039 33.3006 22.4262C31.4234 22.1883 29.5237 22.1883 27.6466 22.4262C27.2317 22.091 26.7036 21.9286 26.1721 21.9729C22.5721 21.9828 18.973 21.9828 15.3747 21.9729C15.1108 21.9477 14.8447 21.9885 14.6004 22.0915C14.3561 22.1945 14.1412 22.3566 13.975 22.5632Z" fill="#1A365D"/>
<path d="M9.55144 38.8238C6.86394 38.8238 4.17644 38.8238 1.48894 38.8238C0.948446 38.8238 0.480186 38.7017 0.171335 38.2285C0.062673 38.0662 0.00322023 37.8759 0.000127138 37.6806C-0.00296596 37.4853 0.0504381 37.2933 0.153905 37.1276C0.264845 36.9254 0.432929 36.7603 0.637154 36.6531C0.841379 36.5459 1.07268 36.5013 1.30213 36.5248C3.59859 36.5414 5.89505 36.5539 8.1915 36.5622C10.0795 36.5622 11.9675 36.5423 13.8554 36.5746C14.5753 36.5871 14.9663 36.3256 15.1531 35.6182C15.5267 34.196 16.528 33.4014 17.8306 33.4263C18.4995 33.4397 19.138 33.7077 19.6161 34.1756C20.0942 34.6435 20.3758 35.2761 20.4036 35.9445C20.4185 37.4688 19.2454 38.8113 17.8306 38.8213C15.0709 38.8437 12.3112 38.8213 9.55144 38.8213V38.8238ZM18.9316 36.1736C18.9244 35.8708 18.7978 35.5831 18.5795 35.3732C18.3612 35.1633 18.0687 35.0481 17.7659 35.0528C17.6158 35.0491 17.4664 35.0756 17.3266 35.1305C17.1869 35.1854 17.0595 35.2678 16.952 35.3727C16.8446 35.4776 16.7592 35.6029 16.7009 35.7414C16.6426 35.8798 16.6126 36.0284 16.6127 36.1786C16.6159 36.3287 16.6488 36.4768 16.7095 36.6141C16.7702 36.7515 16.8574 36.8755 16.9662 36.979C17.0751 37.0825 17.2033 37.1634 17.3435 37.2171C17.4837 37.2708 17.6332 37.2963 17.7833 37.292C17.9339 37.3011 18.0848 37.2786 18.2262 37.226C18.3677 37.1735 18.4966 37.0919 18.6047 36.9866C18.7128 36.8814 18.7977 36.7547 18.854 36.6147C18.9103 36.4747 18.9367 36.3244 18.9316 36.1736Z" fill="#1A365D"/>
<path d="M170.931 38.8311C168.441 38.8311 41.3406 38.8436 38.8499 38.8311C38.2016 38.8359 37.5746 38.6006 37.0894 38.1707C36.6043 37.7407 36.2953 37.1464 36.2222 36.5023C36.136 35.8611 36.2841 35.2104 36.6391 34.6696C36.9942 34.1287 37.5324 33.7342 38.155 33.5583C38.8043 33.3878 39.4942 33.4739 40.0818 33.7985C40.6693 34.1231 41.1094 34.6614 41.3107 35.3018C41.7267 36.5745 41.7267 36.572 43.0767 36.5696C46.7032 36.5696 174.94 36.5621 178.57 36.5471C179.437 36.5471 179.995 36.978 180 37.6356C180.005 38.2931 179.402 38.8386 178.558 38.8436C176.017 38.8436 173.477 38.8436 170.936 38.8436L170.931 38.8311ZM39.9633 36.2582C39.949 35.9553 39.8248 35.668 39.6139 35.4502C39.4029 35.2324 39.1198 35.099 38.8175 35.0751C38.6729 35.0579 38.5263 35.0715 38.3874 35.1149C38.2484 35.1583 38.1201 35.2305 38.011 35.3269C37.9019 35.4234 37.8144 35.5417 37.7542 35.6743C37.694 35.8069 37.6626 35.9507 37.6618 36.0963C37.6498 36.2465 37.6697 36.3975 37.72 36.5394C37.7703 36.6814 37.8501 36.8112 37.954 36.9202C38.0578 37.0293 38.1836 37.1152 38.3229 37.1724C38.4623 37.2296 38.6122 37.2567 38.7627 37.252C38.907 37.2664 39.0526 37.2521 39.1913 37.2098C39.3299 37.1675 39.4588 37.0981 39.5704 37.0057C39.6821 36.9133 39.7743 36.7996 39.8417 36.6713C39.9092 36.543 39.9505 36.4026 39.9633 36.2582Z" fill="#1A365D"/>
<path d="M40.4069 28.8217C41.7594 28.8217 43.1144 28.8466 44.4668 28.8217C45.0472 28.8042 45.2763 28.9512 45.2514 29.5689C45.2041 30.752 45.2664 31.9376 45.2265 33.1207C45.2265 33.4719 45.5179 34.0497 44.9226 34.1419C44.3797 34.229 43.752 34.3909 43.3784 33.6188C42.9648 32.82 42.3403 32.1498 41.5726 31.681C40.9086 31.239 40.1286 31.0033 39.3309 31.0035C38.2699 31.0035 37.2063 30.9786 36.1428 31.0035C35.682 31.0035 35.5201 30.8566 35.5176 30.3734C35.5176 28.8291 35.4902 28.8266 37.0121 28.8266H40.4069V28.8217ZM43.3584 31.5814C43.8018 31.559 44.1057 31.3498 44.0783 30.874C44.079 30.7821 44.0605 30.691 44.0239 30.6067C43.9874 30.5223 43.9336 30.4465 43.8661 30.3842C43.7986 30.3218 43.7187 30.2742 43.6317 30.2445C43.5448 30.2147 43.4525 30.2035 43.3609 30.2115C43.2631 30.2031 43.1646 30.2162 43.0724 30.25C42.9802 30.2837 42.8965 30.3373 42.8271 30.4068C42.7578 30.4764 42.7046 30.5603 42.6711 30.6526C42.6377 30.7449 42.6249 30.8435 42.6336 30.9413C42.6336 31.3846 42.9201 31.5714 43.351 31.5814H43.3584Z" fill="#1A365D"/>
<path d="M39.8786 22.4172C40.6582 22.467 41.4378 22.5243 42.2174 22.5641C42.4491 22.5641 42.6981 22.6289 42.8949 22.4346C43.7296 23.4696 44.341 24.6662 44.6907 25.949C44.8103 26.3426 44.6907 26.3924 44.3495 26.3924C41.5673 26.3924 38.7852 26.3799 36.0055 26.3924C35.5422 26.3924 35.5273 26.1707 35.5074 25.8145C35.465 24.6812 35.6718 23.5455 35.48 22.4172C36.1101 22.193 36.7752 22.4595 37.4078 22.2852C37.0143 22.8481 36.9097 23.4284 37.3231 24.0287C37.5536 24.3423 37.8915 24.5601 38.2724 24.6405C38.6532 24.7209 39.0503 24.6583 39.3879 24.4645C40.1377 24.0561 40.2921 23.4135 39.8786 22.4172Z" fill="#4299E1"/>
<path d="M34.6282 38.7929H21.9927C22.3015 38.113 22.7 37.5301 22.847 36.8452C22.9068 36.5687 23.126 36.616 23.3053 36.6086C24.1496 36.5861 24.994 36.5562 25.8409 36.5587C28.2569 36.5587 30.6729 36.5787 33.0889 36.5787C33.4849 36.5787 33.7714 36.5986 33.8361 37.1067C33.9108 37.6796 34.2247 38.1827 34.6282 38.7929Z" fill="#1A365D"/>
<path d="M33.1582 34.0484C32.959 33.8517 33.0237 33.5976 33.0212 33.3635C33.0212 30.3314 33.0212 27.2994 33.0212 24.2673C33.0212 24.0332 32.959 23.7692 33.1707 23.5898C33.169 27.0769 33.1649 30.5631 33.1582 34.0484Z" fill="#4299E1"/>
<path d="M67.8589 20.3438H55.759C55.5889 20.3442 55.4259 20.4121 55.3058 20.5325C55.1856 20.653 55.1182 20.8162 55.1182 20.9863V22.8104C55.1182 22.9804 55.1857 23.1434 55.3059 23.2636C55.4261 23.3838 55.5891 23.4513 55.759 23.4513H59.9898C60.006 23.4517 60.0215 23.4584 60.033 23.4699C60.0445 23.4814 60.0511 23.4968 60.0516 23.5131V36.5909C60.0516 36.761 60.119 36.9242 60.2392 37.0446C60.3593 37.1651 60.5223 37.233 60.6924 37.2334H62.9255C63.0956 37.233 63.2586 37.1651 63.3787 37.0446C63.4989 36.9242 63.5664 36.761 63.5664 36.5909V23.5131C63.5668 23.4968 63.5734 23.4814 63.5849 23.4699C63.5964 23.4584 63.6119 23.4517 63.6281 23.4513H67.8589C68.0288 23.4513 68.1919 23.3838 68.312 23.2636C68.4322 23.1434 68.4997 22.9804 68.4997 22.8104V20.9863C68.4997 20.8162 68.4323 20.653 68.3121 20.5325C68.192 20.4121 68.029 20.3442 67.8589 20.3438Z" fill="#1A365D"/>
<path d="M77.9591 30.9899C77.9526 30.9825 77.9484 30.9734 77.9469 30.9636C77.9454 30.9538 77.9468 30.9439 77.9508 30.9348C77.9554 30.9233 77.9632 30.9133 77.9732 30.9059C77.9832 30.8985 77.9951 30.8941 78.0075 30.8931C79.1694 30.7242 80.2339 30.1488 81.0116 29.2692C81.9679 28.2128 82.4536 27.0095 82.4536 25.6894C82.4536 24.1172 81.8928 22.8155 80.7847 21.8241C79.6765 20.8327 78.4648 20.3438 77.1464 20.3438H69.99C69.8197 20.3442 69.6565 20.412 69.5361 20.5324C69.4157 20.6528 69.3479 20.816 69.3474 20.9863V36.5909C69.3479 36.7612 69.4157 36.9243 69.5361 37.0448C69.6565 37.1652 69.8197 37.233 69.99 37.2334H72.2213C72.3916 37.233 72.5548 37.1652 72.6752 37.0448C72.7956 36.9243 72.8634 36.7612 72.8639 36.5909V29.6598C72.8627 29.6467 72.8663 29.6336 72.8739 29.6228C72.8816 29.6121 72.8928 29.6045 72.9056 29.6014C72.9175 29.5957 72.931 29.5946 72.9436 29.5983C72.9562 29.602 72.9671 29.6102 72.974 29.6214L78.6484 36.9831C78.7077 37.0598 78.7834 37.1221 78.8701 37.1655C78.9568 37.2088 79.0522 37.2321 79.1491 37.2334H81.4389C81.5579 37.2321 81.6742 37.1976 81.7747 37.1338C81.8752 37.07 81.956 36.9796 82.008 36.8725C82.06 36.7654 82.0811 36.646 82.069 36.5275C82.0569 36.4091 82.0121 36.2964 81.9396 36.202L77.9591 30.9899ZM72.8639 23.5131C72.8639 23.4967 72.8704 23.481 72.882 23.4694C72.8935 23.4578 72.9092 23.4513 72.9256 23.4513H76.7058C77.2745 23.4566 77.8213 23.6718 78.2412 24.0555C78.7035 24.4493 78.9288 24.9851 78.9288 25.6894C78.9396 25.9873 78.8831 26.2838 78.7635 26.5569C78.6438 26.8299 78.4642 27.0725 78.2378 27.2665C77.8238 27.6594 77.2765 27.8812 76.7058 27.8874H72.9273C72.9109 27.8874 72.8952 27.8809 72.8836 27.8693C72.872 27.8577 72.8655 27.842 72.8655 27.8256L72.8639 23.5131Z" fill="#1A365D"/>
<path d="M86.2472 20.3438H84.0142C83.6602 20.3438 83.3733 20.6307 83.3733 20.9846V36.5926C83.3733 36.9465 83.6602 37.2334 84.0142 37.2334H86.2472C86.6012 37.2334 86.8881 36.9465 86.8881 36.5926V20.9846C86.8881 20.6307 86.6012 20.3438 86.2472 20.3438Z" fill="#1A365D"/>
<path d="M99.9423 21.8308C98.8458 20.8444 97.6208 20.3438 96.304 20.3438H89.1526C88.9825 20.3442 88.8195 20.4121 88.6993 20.5325C88.5792 20.653 88.5117 20.8162 88.5117 20.9863V36.5909C88.5117 36.761 88.5792 36.9242 88.6993 37.0446C88.8195 37.1651 88.9825 37.233 89.1526 37.2334H91.3856C91.5558 37.233 91.7188 37.1651 91.8389 37.0446C91.959 36.9242 92.0265 36.761 92.0265 36.5909V31.0567C92.0269 31.0404 92.0336 31.025 92.0451 31.0135C92.0565 31.002 92.072 30.9954 92.0883 30.9949H96.304C97.6392 30.9949 98.8792 30.4943 99.9623 29.5296C101.045 28.565 101.608 27.2632 101.608 25.7111C101.608 24.1306 101.047 22.8255 99.9423 21.8308ZM92.0265 23.5131C92.0269 23.4968 92.0336 23.4814 92.0451 23.4699C92.0565 23.4584 92.072 23.4517 92.0883 23.4513H95.8701C96.4383 23.4567 96.9846 23.6719 97.4038 24.0555C97.8678 24.4493 98.0931 24.9851 98.0931 25.6894C98.1036 25.9874 98.0468 26.284 97.9269 26.557C97.8069 26.8301 97.627 27.0726 97.4005 27.2665C96.987 27.6592 96.4403 27.8809 95.8701 27.8874H92.0883C92.072 27.8869 92.0565 27.8803 92.0451 27.8688C92.0336 27.8573 92.0269 27.8419 92.0265 27.8256V23.5131Z" fill="#1A365D"/>
<path d="M115.018 20.3438H102.918C102.748 20.3442 102.585 20.412 102.464 20.5324C102.344 20.6528 102.276 20.816 102.276 20.9863V22.8104C102.276 22.9806 102.344 23.1436 102.464 23.2637C102.585 23.3838 102.748 23.4513 102.918 23.4513H107.141C107.157 23.4513 107.173 23.4578 107.184 23.4694C107.196 23.481 107.202 23.4967 107.202 23.5131V36.5909C107.203 36.7612 107.271 36.9243 107.391 37.0448C107.511 37.1652 107.675 37.233 107.845 37.2334H110.076C110.247 37.233 110.41 37.1652 110.53 37.0448C110.651 36.9243 110.718 36.7612 110.719 36.5909V23.5131C110.719 23.4968 110.726 23.4814 110.737 23.4699C110.749 23.4584 110.764 23.4517 110.781 23.4513H115.011C115.181 23.4513 115.344 23.3838 115.464 23.2636C115.585 23.1434 115.652 22.9804 115.652 22.8104V20.9863C115.652 20.8173 115.586 20.6551 115.467 20.5349C115.348 20.4146 115.187 20.3459 115.018 20.3438Z" fill="#1A365D"/>
<path d="M125.118 30.9899C125.113 30.9818 125.11 30.9722 125.11 30.9624C125.11 30.9525 125.113 30.9429 125.118 30.9348C125.123 30.9233 125.13 30.9132 125.14 30.9058C125.15 30.8984 125.161 30.894 125.174 30.8931C126.335 30.7238 127.4 30.1485 128.178 29.2692C129.134 28.2128 129.618 27.0095 129.618 25.6894C129.618 24.1172 129.057 22.8155 127.949 21.8241C126.841 20.8327 125.628 20.3438 124.311 20.3438H117.154C116.984 20.3442 116.821 20.4121 116.701 20.5325C116.581 20.653 116.513 20.8162 116.513 20.9863V36.5909C116.513 36.761 116.581 36.9242 116.701 37.0446C116.821 37.1651 116.984 37.233 117.154 37.2334H119.387C119.557 37.233 119.72 37.1651 119.841 37.0446C119.961 36.9242 120.028 36.761 120.028 36.5909V29.6598C120.027 29.6467 120.031 29.6336 120.038 29.6228C120.046 29.6121 120.057 29.6045 120.07 29.6014C120.082 29.5964 120.095 29.5956 120.108 29.5993C120.12 29.6029 120.131 29.6107 120.138 29.6214L125.813 36.9831C125.872 37.0598 125.948 37.1221 126.035 37.1655C126.121 37.2088 126.217 37.2321 126.313 37.2334H128.608C128.728 37.2336 128.845 37.2002 128.947 37.1371C129.049 37.0739 129.131 36.9836 129.184 36.8762C129.237 36.7688 129.259 36.6487 129.247 36.5296C129.235 36.4104 129.19 36.297 129.117 36.202L125.118 30.9899ZM120.022 23.5131C120.022 23.4968 120.029 23.4814 120.04 23.4699C120.052 23.4584 120.067 23.4517 120.083 23.4513H123.865C124.433 23.4567 124.98 23.6719 125.399 24.0555C125.863 24.4493 126.088 24.9851 126.088 25.6894C126.099 25.9874 126.042 26.284 125.922 26.557C125.802 26.8301 125.622 27.0726 125.396 27.2665C124.982 27.6592 124.435 27.8809 123.865 27.8874H120.083C120.067 27.8869 120.052 27.8803 120.04 27.8688C120.029 27.8573 120.022 27.8419 120.022 27.8256V23.5131Z" fill="#1A365D"/>
<path d="M159.639 22.5284C157.954 20.8682 155.684 19.9375 153.319 19.9375C150.954 19.9375 148.684 20.8682 147 22.5284C146.683 22.8371 146.389 23.1678 146.119 23.5181C145.851 23.1688 145.559 22.8387 145.246 22.5301C143.561 20.8699 141.291 19.9392 138.926 19.9392C136.561 19.9392 134.291 20.8699 132.607 22.5301C131.771 23.3439 131.106 24.317 130.652 25.3919C130.199 26.4669 129.965 27.6218 129.965 28.7886C129.965 29.9554 130.199 31.1104 130.652 32.1853C131.106 33.2602 131.771 34.2333 132.607 35.0471C134.293 36.705 136.562 37.634 138.926 37.634C141.291 37.634 143.56 36.705 145.246 35.0471C145.559 34.7376 145.851 34.4069 146.119 34.0575C146.389 34.4078 146.683 34.7385 147 35.0471C148.686 36.705 150.955 37.634 153.319 37.634C155.684 37.634 157.953 36.705 159.639 35.0471C160.469 34.2299 161.128 33.2557 161.578 32.1813C162.028 31.1068 162.26 29.9535 162.26 28.7886C162.26 27.6237 162.028 26.4704 161.578 25.396C161.128 24.3215 160.469 23.3473 159.639 22.5301V22.5284ZM138.896 23.0441C139.617 23.0402 140.332 23.188 140.993 23.4777C141.655 23.7675 142.248 24.1929 142.734 24.7264C143.773 25.8239 144.352 27.2776 144.352 28.7886C144.352 30.2997 143.773 31.7533 142.734 32.8508C142.248 33.3843 141.655 33.8097 140.993 34.0995C140.332 34.3893 139.617 34.537 138.896 34.5331C138.176 34.5384 137.463 34.3913 136.804 34.1013C136.146 33.8114 135.556 33.3852 135.074 32.8508C134.047 31.7471 133.477 30.2958 133.477 28.7886C133.477 27.2814 134.047 25.8301 135.074 24.7264C135.556 24.1921 136.146 23.7659 136.804 23.4759C137.463 23.186 138.176 23.0388 138.896 23.0441ZM153.288 23.0441C154.01 23.0406 154.725 23.1886 155.386 23.4783C156.047 23.7681 156.64 24.1933 157.127 24.7264C158.165 25.8245 158.743 27.2779 158.743 28.7886C158.743 30.2993 158.165 31.7528 157.127 32.8508C156.64 33.384 156.047 33.8091 155.386 34.0989C154.725 34.3887 154.01 34.5366 153.288 34.5331C152.569 34.5386 151.856 34.3915 151.198 34.1016C150.539 33.8116 149.95 33.3853 149.468 32.8508C148.441 31.7477 147.869 30.2962 147.869 28.7886C147.869 27.2811 148.441 25.8295 149.468 24.7264C149.95 24.1919 150.539 23.7656 151.198 23.4757C151.856 23.1857 152.569 23.0386 153.288 23.0441Z" fill="#4299E1"/>
<path d="M174.95 21.8308C173.853 20.8444 172.628 20.3438 171.31 20.3438H164.16C163.99 20.3442 163.826 20.412 163.706 20.5324C163.586 20.6528 163.518 20.816 163.517 20.9863V36.5909C163.518 36.7612 163.586 36.9243 163.706 37.0448C163.826 37.1652 163.99 37.233 164.16 37.2334H166.388C166.558 37.233 166.721 37.1652 166.842 37.0448C166.962 36.9243 167.03 36.7612 167.03 36.5909V31.0567C167.03 31.0403 167.037 31.0246 167.049 31.013C167.06 31.0014 167.076 30.9949 167.092 30.9949H171.306C172.651 30.9949 173.883 30.4943 174.966 29.5296C176.049 28.565 176.612 27.2632 176.612 25.7111C176.615 24.1306 176.054 22.8255 174.95 21.8308ZM173.1 25.6894C173.111 25.9874 173.054 26.284 172.934 26.557C172.814 26.8301 172.634 27.0726 172.408 27.2665C171.994 27.6592 171.448 27.8809 170.877 27.8874H167.096C167.079 27.8874 167.063 27.8809 167.052 27.8693C167.04 27.8577 167.034 27.842 167.034 27.8256V23.5131C167.034 23.4967 167.04 23.481 167.052 23.4694C167.063 23.4578 167.079 23.4513 167.096 23.4513H170.877C171.446 23.4571 171.992 23.6722 172.411 24.0555C172.875 24.4493 173.1 24.9851 173.1 25.6894Z" fill="#1A365D"/>
</svg>
