<svg width="180" height="39" viewBox="0 0 180 39" fill="none" xmlns="http://www.w3.org/2000/svg">
<path d="M37.7239 17.132C38.3865 16.7808 38.6679 16.2752 38.4338 15.5803C38.1996 14.8853 37.5994 14.7957 36.9593 14.7932C32.3838 14.7807 27.8058 14.7484 23.2303 14.7558C22.6575 14.7558 22.4831 14.6089 22.523 14.041C22.5728 13.2738 22.5354 12.5017 22.5354 11.5727C23.0336 12.0957 23.442 12.5167 23.8431 12.9401C23.9751 13.0796 24.0797 13.2639 24.2989 13.2664C25.2428 13.2664 26.1868 13.3012 27.1308 13.2664C27.5916 13.2464 27.6763 12.8355 27.3077 12.4245C26.7099 11.757 26.0872 11.1144 25.4894 10.4469C25.2821 10.2857 25.1369 10.0578 25.0785 9.80176C25.4272 9.80176 25.7559 9.80176 26.0748 9.80176C26.3487 9.80176 26.6177 9.80175 26.7448 9.4929C26.8718 9.18405 26.6675 8.99475 26.4957 8.80048C25.2229 7.43805 23.9576 6.06068 22.6724 4.72066C21.3399 3.32087 21.3224 3.32336 19.9974 4.76549C18.835 6.02912 17.6835 7.30189 16.5427 8.58378C16.3111 8.83286 15.9126 9.08193 16.0695 9.49042C16.2488 9.96366 16.7245 9.77436 17.0907 9.79926C17.2028 9.79926 17.3148 9.79926 17.5315 9.79926C17.0658 10.5938 16.4655 11.1492 15.9424 11.7669C15.6873 12.0245 15.4509 12.3 15.2351 12.5914C15.0259 12.9326 15.0383 13.2738 15.5688 13.2813C16.4406 13.2938 17.3123 13.2664 18.1841 13.2813C18.3037 13.276 18.4204 13.2425 18.5247 13.1837C18.629 13.1248 18.718 13.0422 18.7844 12.9426C19.1829 12.5216 19.5714 12.0957 20.0995 11.5253C20.0995 12.6287 20.0995 13.5777 20.0995 14.5142C20.0995 14.8654 19.7732 14.7259 19.5889 14.7284C18.3784 14.7434 17.1679 14.7284 15.9574 14.7459C15.0009 14.7658 14.5078 15.3935 14.6971 16.2627C14.8067 16.7609 15.1728 16.9477 15.7731 17.1444C13.8969 17.3657 12.1508 18.2155 10.819 19.5555C8.58979 21.7423 7.83012 24.5071 7.7554 27.5258C7.71057 29.486 7.7554 31.4487 7.73298 33.4089C7.73298 33.658 7.98206 34.1562 7.42164 34.1014C6.96335 34.064 6.37304 34.4476 6.09407 33.6481C5.46143 31.8473 4.84871 30.044 4.56725 28.151C3.60085 21.7498 4.91347 15.8069 8.52254 10.4817C12.2586 4.96225 17.4444 1.39303 24.0871 0.297111C30.2368 -0.716618 35.8584 0.912319 40.8971 4.44169C46.4813 8.35215 49.7193 13.8143 50.8327 20.5119C51.4379 24.1384 51.0693 27.735 50.0854 31.2644C49.8737 32.0316 49.6172 32.7887 49.4329 33.5609C49.2386 34.3828 48.6059 34.0291 48.1476 34.059C47.5798 34.0989 47.8363 33.6132 47.8288 33.3691C47.7541 31.2196 47.9957 29.0452 47.5449 26.9256C46.7229 23.055 44.9869 19.7846 41.2284 17.9714C40.1367 17.4358 38.9398 17.1491 37.7239 17.132ZM32.187 5.38817C34.1223 5.96852 35.024 6.95983 35.0514 8.4443C35.057 8.81829 34.9833 9.18923 34.8352 9.53268C34.6871 9.87613 34.4679 10.1843 34.1921 10.4369C33.6366 10.9898 32.9118 11.1991 32.1023 11.3062C33.2829 12.2676 34.892 12.1455 36.0203 11.0571C36.6289 10.4627 37.0105 9.67413 37.0987 8.82799C37.187 7.98184 36.9764 7.13149 36.5035 6.42432C35.4424 4.93735 33.8135 4.51642 32.187 5.38817Z" fill="white"/>
<path d="M33.2906 22.4174C33.2532 22.8084 33.2134 23.197 33.176 23.5855C32.9643 23.7748 33.0266 24.0289 33.0266 24.263C33.0266 27.2967 33.0266 30.3288 33.0266 33.3592C33.0266 33.5933 32.9643 33.8573 33.1636 34.0441C32.2545 34.3256 31.3229 34.1039 30.4038 34.1562C30.0601 34.1761 30.1398 33.8748 30.1398 33.6755C30.1398 32.465 30.1647 31.257 30.1697 30.0465C30.1697 27.9817 29.024 26.679 26.9841 26.4424C26.6954 26.4112 26.4052 26.3962 26.1148 26.3976C21.1798 26.3976 16.2457 26.3926 11.3124 26.3826C10.2687 26.3826 10.2438 26.3826 10.5103 25.3365C10.7768 24.2904 11.0857 23.2443 11.7806 22.3725C12.4855 22.7686 13.2501 22.4747 13.9799 22.5618C13.691 23.6802 14.2439 24.4897 15.3199 24.4872C19.0112 24.4872 22.7041 24.4764 26.3987 24.4548C27.5918 24.4548 28.1423 23.5432 27.6441 22.4248C29.5185 22.1851 31.4156 22.1826 33.2906 22.4174Z" fill="#4299E1"/>
<path d="M10.3331 31.4912C10.3331 30.8137 10.3605 30.1337 10.3331 29.4587C10.3057 28.9606 10.4925 28.7937 10.9981 28.7987C13.7056 28.8186 16.4155 28.8112 19.1229 28.8112C21.519 28.8112 23.9126 28.8112 26.3087 28.8112C27.3448 28.8112 27.7458 29.2146 27.7558 30.2632C27.7657 31.3118 27.7309 32.3928 27.7558 33.4564C27.7707 33.9769 27.6263 34.1911 27.0634 34.1737C25.8329 34.1363 24.5975 34.1463 23.3646 34.1737C23.1752 34.1986 22.9829 34.1625 22.8154 34.0707C22.6479 33.9789 22.514 33.8361 22.4331 33.6631C20.4405 29.9992 15.0007 30.0939 13.1725 33.7005C12.9708 34.099 12.6943 34.1662 12.3033 34.1737C10.3107 34.2111 10.3107 34.2185 10.3306 32.2309C10.3306 31.9819 10.3306 31.7477 10.3306 31.5061L10.3331 31.4912ZM12.8986 31.4463C13.1651 31.4463 13.4291 31.4339 13.6931 31.4463C14.1315 31.4737 14.119 31.1848 14.1315 30.8785C14.1439 30.5721 14.0244 30.3803 13.6757 30.4027C13.1476 30.4177 12.6188 30.4177 12.0891 30.4027C11.7354 30.4027 11.6358 30.5646 11.6407 30.8884C11.6457 31.2122 11.7005 31.4613 12.1065 31.4463C12.3705 31.4389 12.6345 31.4463 12.8986 31.4463Z" fill="white"/>
<path d="M13.9749 22.5642C13.2451 22.477 12.4805 22.7709 11.7756 22.3749C12.7719 20.8804 14.0845 19.9215 15.95 19.919C23.3342 19.9057 30.7234 19.8966 38.1176 19.8916C40.165 19.8916 41.7242 20.8082 42.9048 22.4371C42.708 22.6314 42.4589 22.5766 42.2273 22.5667C41.4477 22.5268 40.6681 22.4695 39.8885 22.4197C38.9644 21.6725 38.5236 21.6501 37.4227 22.2952C36.79 22.4695 36.125 22.203 35.4948 22.4272C34.6729 21.7049 33.9282 21.7049 33.3005 22.4272C31.4234 22.1893 29.5237 22.1893 27.6465 22.4272C27.2317 22.0919 26.7036 21.9296 26.172 21.9739C22.5721 21.9838 18.973 21.9838 15.3747 21.9739C15.1107 21.9487 14.8447 21.9894 14.6003 22.0925C14.356 22.1955 14.1411 22.3576 13.9749 22.5642Z" fill="#F7F8F9"/>
<path d="M9.55144 38.8238C6.86394 38.8238 4.17644 38.8238 1.48894 38.8238C0.948446 38.8238 0.480186 38.7017 0.171335 38.2285C0.062673 38.0662 0.00322023 37.8759 0.000127138 37.6806C-0.00296596 37.4853 0.0504381 37.2933 0.153905 37.1276C0.264845 36.9254 0.432929 36.7603 0.637154 36.6531C0.841379 36.5459 1.07268 36.5013 1.30213 36.5248C3.59859 36.5414 5.89505 36.5539 8.1915 36.5622C10.0795 36.5622 11.9675 36.5423 13.8554 36.5746C14.5753 36.5871 14.9663 36.3256 15.1531 35.6182C15.5267 34.196 16.528 33.4014 17.8306 33.4263C18.4995 33.4397 19.138 33.7077 19.6161 34.1756C20.0942 34.6435 20.3758 35.2761 20.4036 35.9445C20.4185 37.4688 19.2454 38.8113 17.8306 38.8213C15.0709 38.8437 12.3112 38.8213 9.55144 38.8213V38.8238ZM18.9316 36.1736C18.9244 35.8708 18.7978 35.5831 18.5795 35.3732C18.3612 35.1633 18.0687 35.0481 17.7659 35.0528C17.6158 35.0491 17.4664 35.0756 17.3266 35.1305C17.1869 35.1854 17.0595 35.2678 16.952 35.3727C16.8446 35.4776 16.7592 35.6029 16.7009 35.7414C16.6426 35.8798 16.6126 36.0284 16.6127 36.1786C16.6159 36.3287 16.6488 36.4768 16.7095 36.6141C16.7702 36.7515 16.8574 36.8755 16.9662 36.979C17.0751 37.0825 17.2033 37.1634 17.3435 37.2171C17.4837 37.2708 17.6332 37.2963 17.7833 37.292C17.9339 37.3011 18.0848 37.2786 18.2262 37.226C18.3677 37.1735 18.4966 37.0919 18.6047 36.9866C18.7128 36.8814 18.7977 36.7547 18.854 36.6147C18.9103 36.4747 18.9367 36.3244 18.9316 36.1736Z" fill="white"/>
<path d="M170.931 38.8311C168.44 38.8311 41.3406 38.8436 38.8499 38.8311C38.2016 38.8359 37.5745 38.6006 37.0894 38.1707C36.6042 37.7407 36.2953 37.1464 36.2221 36.5023C36.136 35.8611 36.284 35.2104 36.6391 34.6696C36.9941 34.1287 37.5324 33.7342 38.1549 33.5583C38.8042 33.3878 39.4942 33.4739 40.0817 33.7985C40.6693 34.1231 41.1094 34.6614 41.3107 35.3018C41.7267 36.5745 41.7266 36.572 43.0766 36.5696C46.7031 36.5696 174.94 36.5621 178.57 36.5471C179.437 36.5471 179.995 36.978 180 37.6356C180.005 38.2931 179.402 38.8386 178.558 38.8436C176.017 38.8436 173.477 38.8436 170.936 38.8436L170.931 38.8311ZM39.9632 36.2582C39.949 35.9553 39.8248 35.668 39.6138 35.4502C39.4029 35.2324 39.1197 35.099 38.8175 35.0751C38.6729 35.0579 38.5263 35.0715 38.3873 35.1149C38.2483 35.1583 38.1201 35.2305 38.011 35.3269C37.9019 35.4234 37.8144 35.5417 37.7542 35.6743C37.694 35.8069 37.6625 35.9507 37.6618 36.0963C37.6498 36.2465 37.6696 36.3975 37.72 36.5394C37.7703 36.6814 37.85 36.8112 37.9539 36.9202C38.0578 37.0293 38.1835 37.1152 38.3229 37.1724C38.4623 37.2296 38.6121 37.2567 38.7627 37.252C38.9069 37.2664 39.0526 37.2521 39.1912 37.2098C39.3299 37.1675 39.4587 37.0981 39.5704 37.0057C39.682 36.9133 39.7743 36.7996 39.8417 36.6713C39.9091 36.543 39.9504 36.4026 39.9632 36.2582Z" fill="white"/>
<path d="M40.4068 28.8209C41.7593 28.8209 43.1143 28.8458 44.4667 28.8209C45.0471 28.8035 45.2762 28.9504 45.2513 29.5681C45.204 30.7512 45.2663 31.9368 45.2264 33.1199C45.2264 33.4711 45.5178 34.049 44.9225 34.1411C44.3796 34.2283 43.7519 34.3902 43.3783 33.6181C42.9647 32.8193 42.3402 32.1491 41.5725 31.6803C40.9085 31.2382 40.1285 31.0025 39.3308 31.0028C38.2698 31.0028 37.2062 30.9779 36.1427 31.0028C35.6819 31.0028 35.52 30.8559 35.5175 30.3727C35.5175 28.8284 35.4901 28.8259 37.012 28.8259H40.4068V28.8209ZM43.3584 31.5807C43.8017 31.5582 44.1056 31.349 44.0782 30.8733C44.0789 30.7814 44.0604 30.6903 44.0238 30.606C43.9873 30.5216 43.9335 30.4458 43.866 30.3834C43.7985 30.3211 43.7186 30.2735 43.6317 30.2437C43.5447 30.214 43.4524 30.2028 43.3608 30.2108C43.263 30.2024 43.1645 30.2155 43.0723 30.2493C42.9801 30.283 42.8964 30.3365 42.8271 30.4061C42.7577 30.4756 42.7045 30.5595 42.6711 30.6519C42.6376 30.7442 42.6248 30.8427 42.6336 30.9405C42.6336 31.3839 42.92 31.5707 43.3509 31.5807H43.3584Z" fill="white"/>
<path d="M39.8785 22.4174C40.6581 22.4672 41.4377 22.5245 42.2173 22.5644C42.449 22.5644 42.6981 22.6291 42.8948 22.4348C43.7295 23.4698 44.341 24.6664 44.6906 25.9493C44.8102 26.3428 44.6906 26.3926 44.3494 26.3926C41.5673 26.3926 38.7851 26.3802 36.0054 26.3926C35.5422 26.3926 35.5272 26.1709 35.5073 25.8148C35.465 24.6815 35.6717 23.5457 35.4799 22.4174C36.1101 22.1932 36.7751 22.4598 37.4077 22.2854C37.0142 22.8483 36.9096 23.4286 37.323 24.0289C37.5536 24.3426 37.8915 24.5603 38.2723 24.6407C38.6531 24.7211 39.0503 24.6585 39.3879 24.4648C40.1376 24.0563 40.292 23.4137 39.8785 22.4174Z" fill="#4299E1"/>
<path d="M34.6281 38.7939H21.9926C22.3015 38.1139 22.7 37.5311 22.847 36.8461C22.9067 36.5697 23.1259 36.617 23.3053 36.6095C24.1496 36.5871 24.994 36.5572 25.8408 36.5597C28.2568 36.5597 30.6729 36.5796 33.0889 36.5796C33.4849 36.5796 33.7713 36.5996 33.8361 37.1077C33.9108 37.6806 34.2246 38.1837 34.6281 38.7939Z" fill="white"/>
<path d="M33.1583 34.0465C32.9591 33.8497 33.0238 33.5957 33.0214 33.3615C33.0214 30.3295 33.0214 27.2974 33.0214 24.2654C33.0214 24.0312 32.9591 23.7672 33.1708 23.5879C33.1691 27.0749 33.165 30.5611 33.1583 34.0465Z" fill="#4299E1"/>
<path d="M67.8589 20.3435H55.7591C55.589 20.3439 55.426 20.4118 55.3058 20.5323C55.1857 20.6527 55.1182 20.8159 55.1182 20.986V22.8102C55.1182 22.9802 55.1858 23.1432 55.3059 23.2634C55.4261 23.3836 55.5891 23.4511 55.7591 23.4511H59.9899C60.0061 23.4515 60.0216 23.4581 60.0331 23.4696C60.0445 23.4811 60.0512 23.4966 60.0516 23.5128V36.5907C60.0516 36.7608 60.1191 36.924 60.2392 37.0444C60.3594 37.1649 60.5224 37.2327 60.6925 37.2332H62.9255C63.0957 37.2327 63.2587 37.1649 63.3788 37.0444C63.4989 36.924 63.5664 36.7608 63.5664 36.5907V23.5128C63.5668 23.4966 63.5735 23.4811 63.585 23.4696C63.5964 23.4581 63.6119 23.4515 63.6282 23.4511H67.8589C68.0289 23.4511 68.1919 23.3836 68.3121 23.2634C68.4323 23.1432 68.4998 22.9802 68.4998 22.8102V20.986C68.4998 20.8159 68.4323 20.6527 68.3122 20.5323C68.1921 20.4118 68.0291 20.3439 67.8589 20.3435Z" fill="white"/>
<path d="M77.9592 30.9897C77.9527 30.9823 77.9485 30.9731 77.947 30.9634C77.9455 30.9536 77.9469 30.9436 77.9509 30.9346C77.9555 30.9231 77.9633 30.913 77.9733 30.9057C77.9833 30.8983 77.9952 30.8939 78.0076 30.8929C79.1695 30.7239 80.2339 30.1486 81.0117 29.269C81.968 28.2126 82.4537 27.0093 82.4537 25.6891C82.4537 24.117 81.8929 22.8152 80.7847 21.8239C79.6766 20.8325 78.4649 20.3435 77.1464 20.3435H69.99C69.8197 20.3439 69.6566 20.4118 69.5362 20.5322C69.4158 20.6526 69.3479 20.8158 69.3475 20.986V36.5907C69.3479 36.7609 69.4158 36.9241 69.5362 37.0445C69.6566 37.1649 69.8197 37.2327 69.99 37.2332H72.2214C72.3917 37.2327 72.5549 37.1649 72.6753 37.0445C72.7957 36.9241 72.8635 36.7609 72.8639 36.5907V29.6595C72.8628 29.6464 72.8663 29.6333 72.874 29.6226C72.8816 29.6119 72.8929 29.6043 72.9057 29.6011C72.9175 29.5954 72.9311 29.5944 72.9437 29.598C72.9563 29.6017 72.9672 29.61 72.9741 29.6212L78.6485 36.9828C78.7077 37.0596 78.7835 37.1219 78.8702 37.1652C78.9569 37.2086 79.0523 37.2318 79.1492 37.2332H81.439C81.558 37.2318 81.6743 37.1973 81.7748 37.1336C81.8753 37.0698 81.9561 36.9793 82.0081 36.8722C82.0601 36.7652 82.0812 36.6457 82.0691 36.5273C82.057 36.4089 82.0122 36.2962 81.9396 36.2018L77.9592 30.9897ZM72.8639 23.5128C72.8639 23.4965 72.8704 23.4807 72.882 23.4692C72.8936 23.4576 72.9093 23.4511 72.9257 23.4511H76.7058C77.2746 23.4564 77.8214 23.6715 78.2413 24.0552C78.7036 24.4491 78.9289 24.9848 78.9289 25.6891C78.9397 25.987 78.8832 26.2836 78.7635 26.5566C78.6439 26.8297 78.4642 27.0722 78.2379 27.2663C77.8239 27.6592 77.2766 27.8809 76.7058 27.8871H72.9274C72.911 27.8871 72.8953 27.8806 72.8837 27.869C72.8721 27.8575 72.8656 27.8417 72.8656 27.8254L72.8639 23.5128Z" fill="white"/>
<path d="M86.2472 20.3435H84.0142C83.6602 20.3435 83.3733 20.6304 83.3733 20.9844V36.5923C83.3733 36.9463 83.6602 37.2332 84.0142 37.2332H86.2472C86.6012 37.2332 86.8881 36.9463 86.8881 36.5923V20.9844C86.8881 20.6304 86.6012 20.3435 86.2472 20.3435Z" fill="white"/>
<path d="M99.9424 21.8305C98.8459 20.8442 97.6209 20.3435 96.3041 20.3435H89.1527C88.9826 20.3439 88.8196 20.4118 88.6994 20.5323C88.5793 20.6527 88.5118 20.8159 88.5118 20.986V36.5907C88.5118 36.7608 88.5793 36.924 88.6994 37.0444C88.8196 37.1649 88.9826 37.2327 89.1527 37.2332H91.3857C91.5559 37.2327 91.7189 37.1649 91.839 37.0444C91.9592 36.924 92.0266 36.7608 92.0266 36.5907V31.0564C92.027 31.0402 92.0337 31.0247 92.0452 31.0132C92.0567 31.0018 92.0721 30.9951 92.0884 30.9947H96.3041C97.6393 30.9947 98.8793 30.494 99.9624 29.5294C101.046 28.5647 101.608 27.2629 101.608 25.7108C101.608 24.1303 101.047 22.8252 99.9424 21.8305ZM92.0266 23.5128C92.027 23.4966 92.0337 23.4811 92.0452 23.4696C92.0567 23.4581 92.0721 23.4515 92.0884 23.4511H95.8702C96.4384 23.4565 96.9847 23.6717 97.404 24.0552C97.8679 24.4491 98.0932 24.9848 98.0932 25.6891C98.1037 25.9872 98.0469 26.2837 97.927 26.5568C97.8071 26.8298 97.6271 27.0723 97.4006 27.2663C96.9871 27.6589 96.4404 27.8807 95.8702 27.8871H92.0884C92.0721 27.8867 92.0567 27.8801 92.0452 27.8686C92.0337 27.8571 92.027 27.8416 92.0266 27.8254V23.5128Z" fill="white"/>
<path d="M115.018 20.3435H102.918C102.748 20.3439 102.585 20.4118 102.464 20.5322C102.344 20.6526 102.276 20.8158 102.276 20.986V22.8102C102.276 22.9803 102.344 23.1433 102.465 23.2635C102.585 23.3836 102.748 23.4511 102.918 23.4511H107.141C107.157 23.4511 107.173 23.4576 107.184 23.4692C107.196 23.4807 107.202 23.4965 107.202 23.5128V36.5907C107.203 36.7609 107.271 36.9241 107.391 37.0445C107.512 37.1649 107.675 37.2327 107.845 37.2332H110.076C110.247 37.2327 110.41 37.1649 110.53 37.0445C110.651 36.9241 110.718 36.7609 110.719 36.5907V23.5128C110.719 23.4966 110.726 23.4811 110.737 23.4696C110.749 23.4581 110.764 23.4515 110.781 23.4511H115.011C115.181 23.4511 115.344 23.3836 115.465 23.2634C115.585 23.1432 115.652 22.9802 115.652 22.8102V20.986C115.652 20.8171 115.586 20.6549 115.467 20.5346C115.348 20.4144 115.187 20.3457 115.018 20.3435Z" fill="white"/>
<path d="M125.119 30.9897C125.113 30.9816 125.11 30.972 125.11 30.9621C125.11 30.9523 125.113 30.9427 125.119 30.9346C125.123 30.9231 125.13 30.913 125.14 30.9056C125.15 30.8982 125.161 30.8938 125.174 30.8929C126.335 30.7235 127.4 30.1482 128.178 29.269C129.134 28.2126 129.618 27.0093 129.618 25.6891C129.618 24.117 129.057 22.8152 127.949 21.8239C126.841 20.8325 125.628 20.3435 124.311 20.3435H117.154C116.984 20.3439 116.821 20.4118 116.701 20.5323C116.581 20.6527 116.514 20.8159 116.514 20.986V36.5907C116.514 36.7608 116.581 36.924 116.701 37.0444C116.821 37.1649 116.984 37.2327 117.154 37.2332H119.387C119.558 37.2327 119.721 37.1649 119.841 37.0444C119.961 36.924 120.028 36.7608 120.028 36.5907V29.6595C120.027 29.6464 120.031 29.6333 120.038 29.6226C120.046 29.6119 120.057 29.6043 120.07 29.6011C120.082 29.5961 120.095 29.5954 120.108 29.599C120.12 29.6027 120.131 29.6105 120.138 29.6212L125.813 36.9828C125.872 37.0596 125.948 37.1219 126.035 37.1652C126.121 37.2086 126.217 37.2318 126.314 37.2332H128.608C128.728 37.2334 128.845 37.2 128.947 37.1368C129.049 37.0737 129.131 36.9833 129.184 36.8759C129.237 36.7686 129.259 36.6485 129.247 36.5293C129.235 36.4102 129.19 36.2967 129.117 36.2018L125.119 30.9897ZM120.022 23.5128C120.022 23.4966 120.029 23.4811 120.04 23.4696C120.052 23.4581 120.067 23.4515 120.083 23.4511H123.865C124.433 23.4565 124.98 23.6717 125.399 24.0552C125.863 24.4491 126.088 24.9848 126.088 25.6891C126.099 25.9872 126.042 26.2837 125.922 26.5568C125.802 26.8298 125.622 27.0723 125.396 27.2663C124.982 27.6589 124.435 27.8807 123.865 27.8871H120.083C120.067 27.8867 120.052 27.8801 120.04 27.8686C120.029 27.8571 120.022 27.8416 120.022 27.8254V23.5128Z" fill="white"/>
<path d="M159.639 22.5282C157.955 20.868 155.685 19.9373 153.319 19.9373C150.954 19.9373 148.684 20.868 147 22.5282C146.683 22.8368 146.389 23.1675 146.119 23.5179C145.851 23.1686 145.56 22.8384 145.246 22.5298C143.562 20.8696 141.292 19.9389 138.927 19.9389C136.561 19.9389 134.291 20.8696 132.607 22.5298C131.771 23.3437 131.106 24.3168 130.653 25.3917C130.199 26.4666 129.965 27.6216 129.965 28.7884C129.965 29.9552 130.199 31.1101 130.653 32.185C131.106 33.26 131.771 34.2331 132.607 35.0469C134.293 36.7047 136.562 37.6338 138.927 37.6338C141.291 37.6338 143.56 36.7047 145.246 35.0469C145.559 34.7374 145.851 34.4067 146.119 34.0572C146.389 34.4075 146.683 34.7382 147 35.0469C148.686 36.7047 150.955 37.6338 153.319 37.6338C155.684 37.6338 157.953 36.7047 159.639 35.0469C160.469 34.2297 161.128 33.2555 161.578 32.181C162.028 31.1066 162.26 29.9533 162.26 28.7884C162.26 27.6235 162.028 26.4702 161.578 25.3957C161.128 24.3212 160.469 23.347 159.639 22.5298V22.5282ZM138.896 23.0439C139.618 23.04 140.332 23.1877 140.994 23.4775C141.655 23.7673 142.248 24.1927 142.734 24.7262C143.773 25.8236 144.352 27.2773 144.352 28.7884C144.352 30.2994 143.773 31.7531 142.734 32.8506C142.248 33.384 141.655 33.8094 140.994 34.0992C140.332 34.389 139.618 34.5368 138.896 34.5329C138.176 34.5382 137.463 34.391 136.805 34.1011C136.146 33.8111 135.556 33.3849 135.074 32.8506C134.047 31.7469 133.477 30.2956 133.477 28.7884C133.477 27.2812 134.047 25.8298 135.074 24.7262C135.556 24.1918 136.146 23.7656 136.805 23.4757C137.463 23.1857 138.176 23.0386 138.896 23.0439ZM153.289 23.0439C154.01 23.0404 154.725 23.1883 155.386 23.4781C156.047 23.7678 156.64 24.193 157.127 24.7262C158.165 25.8242 158.743 27.2777 158.743 28.7884C158.743 30.2991 158.165 31.7525 157.127 32.8506C156.64 33.3837 156.047 33.8089 155.386 34.0987C154.725 34.3884 154.01 34.5363 153.289 34.5329C152.569 34.5384 151.857 34.3913 151.198 34.1013C150.54 33.8113 149.95 33.385 149.468 32.8506C148.441 31.7475 147.87 30.2959 147.87 28.7884C147.87 27.2808 148.441 25.8293 149.468 24.7262C149.95 24.1917 150.54 23.7654 151.198 23.4754C151.857 23.1854 152.569 23.0384 153.289 23.0439Z" fill="#4299E1"/>
<path d="M174.95 21.8305C173.853 20.8442 172.628 20.3435 171.31 20.3435H164.16C163.99 20.3439 163.827 20.4118 163.706 20.5322C163.586 20.6526 163.518 20.8158 163.517 20.986V36.5907C163.518 36.7609 163.586 36.9241 163.706 37.0445C163.827 37.1649 163.99 37.2327 164.16 37.2332H166.388C166.558 37.2327 166.721 37.1649 166.842 37.0445C166.962 36.9241 167.03 36.7609 167.031 36.5907V31.0564C167.031 31.0401 167.037 31.0244 167.049 31.0128C167.06 31.0012 167.076 30.9947 167.092 30.9947H171.306C172.652 30.9947 173.883 30.494 174.966 29.5294C176.05 28.5647 176.612 27.2629 176.612 25.7108C176.615 24.1303 176.055 22.8252 174.95 21.8305ZM173.101 25.6891C173.111 25.9872 173.054 26.2837 172.934 26.5568C172.814 26.8298 172.634 27.0723 172.408 27.2663C171.994 27.6589 171.448 27.8807 170.877 27.8871H167.096C167.079 27.8871 167.064 27.8806 167.052 27.869C167.04 27.8575 167.034 27.8417 167.034 27.8254V23.5128C167.034 23.4965 167.04 23.4807 167.052 23.4692C167.064 23.4576 167.079 23.4511 167.096 23.4511H170.877C171.446 23.4568 171.992 23.6719 172.411 24.0552C172.875 24.4491 173.101 24.9848 173.101 25.6891Z" fill="white"/>
</svg>
