<svg width="250" height="39" viewBox="0 0 250 39" fill="none" xmlns="http://www.w3.org/2000/svg">
<path d="M57.948 5.12508C57.8708 5.91245 57.7936 6.70499 57.7215 7.49236C57.2892 7.87318 57.4128 8.39294 57.4128 8.86639C57.4128 15.0075 57.4128 21.1504 57.4128 27.295C57.4128 27.7685 57.2841 28.2831 57.6906 28.6793C55.8483 29.2506 53.9596 28.8028 52.0967 28.9058C51.402 28.9469 51.5821 28.3397 51.5821 27.9331C51.5821 25.4835 51.6335 23.0339 51.6438 20.5843C51.6438 16.4005 49.3229 13.7605 45.1905 13.2819C44.6061 13.2159 44.0185 13.1833 43.4305 13.1841L13.4229 13.1584C11.3078 13.1584 11.2563 13.1584 11.7967 11.0381C12.337 8.91787 12.9649 6.79761 14.3698 5.0376C15.8004 5.83527 17.3443 5.24345 18.8264 5.41842C18.2397 7.68276 19.341 9.32441 21.5385 9.31926C29.0211 9.31926 36.5037 9.29696 43.9863 9.25236C46.405 9.25236 47.5011 7.40487 46.5028 5.13538C50.3021 4.6491 54.1477 4.64563 57.948 5.12508Z" fill="#4299E1"/>
<path d="M11.4363 23.5029C11.4363 22.1289 11.4929 20.7549 11.4363 19.386C11.3848 18.3567 11.7605 18.0377 12.7846 18.048C18.2705 18.0891 23.7615 18.0737 29.2525 18.0737C34.1054 18.0737 38.9583 18.0737 43.8111 18.0737C45.9056 18.0737 46.7239 18.8919 46.7393 21.0173C46.7548 23.1427 46.693 25.3299 46.7393 27.4861C46.7651 28.5154 46.4769 28.9785 45.3344 28.9425C42.8385 28.8653 40.3374 28.8859 37.8415 28.9425C37.4584 28.992 37.0695 28.9191 36.7302 28.7342C36.391 28.5494 36.119 28.262 35.9529 27.9133C31.9131 20.4873 20.895 20.6777 17.1898 27.9853C16.7832 28.7933 16.2223 28.9322 15.4297 28.9477C11.4002 29.0248 11.4003 29.0351 11.4311 25.0056C11.4311 24.491 11.4311 24.0279 11.4311 23.539L11.4363 23.5029ZM16.6391 23.4155C17.1537 23.4155 17.7095 23.4155 18.2447 23.4155C19.1299 23.4669 19.1093 22.9009 19.135 22.2627C19.1608 21.6246 18.9137 21.2798 18.2138 21.3004C17.14 21.3313 16.0679 21.3313 14.9975 21.3004C14.277 21.3004 14.0763 21.6297 14.0866 22.2884C14.0969 22.9472 14.2101 23.4515 15.0283 23.4206C15.5635 23.4 16.1039 23.4155 16.6391 23.4155Z" fill="#1A365D"/>
<path d="M18.816 5.41895C17.3339 5.24398 15.79 5.8358 14.3593 5.03814C16.3612 1.99158 19.0373 0.0668933 22.8146 0.0566009C37.7798 0.0325852 52.745 0.0137232 67.7102 0C71.858 0 75.0178 1.86293 77.4108 5.14622C77.0145 5.54248 76.5051 5.43441 76.0368 5.40868C74.4569 5.33149 72.877 5.21827 71.2971 5.11534C69.4239 3.60235 68.5336 3.57148 66.3053 4.85803C65.0187 5.21827 63.6756 4.67789 62.3993 5.12561C60.7268 3.66923 59.2189 3.66409 57.9478 5.12561C54.1446 4.64188 50.2955 4.64188 46.4923 5.12561C45.6534 4.44521 44.584 4.11519 43.5075 4.20445C36.2136 4.22504 28.9214 4.22504 21.6309 4.20445C21.0979 4.15849 20.5618 4.24536 20.0706 4.4573C19.5793 4.66925 19.1483 4.99965 18.816 5.41895Z" fill="#1A365D"/>
<path d="M9.85122 38.3597C9.41353 38.3597 8.45985 38.3597 3.0203 38.3597C1.92415 38.3597 0.96181 38.1127 0.344264 37.1504C0.12605 36.8221 0.00665608 36.4381 0.000270281 36.044C-0.00611552 35.6499 0.100774 35.2623 0.308238 34.9272C0.533424 34.5165 0.874651 34.1813 1.28928 33.9635C1.7039 33.7456 2.17353 33.6548 2.63947 33.7024C7.29166 33.7367 7.45282 33.7624 7.098 33.7796C10.9216 33.7796 14.7504 33.7384 18.5741 33.7796C20.0356 33.8053 20.823 33.265 21.1986 31.8446C21.9603 28.9627 23.9879 27.352 26.6279 27.4034C27.9825 27.431 29.2757 27.9738 30.2442 28.9212C31.2127 29.8687 31.7837 31.1496 31.841 32.5033C31.8719 35.591 29.4943 38.3134 26.6279 38.334C21.034 38.3803 15.4452 38.334 9.85122 38.334V38.3597ZM28.8613 32.9922C28.8478 32.378 28.5919 31.794 28.1493 31.3678C27.7067 30.9417 27.1136 30.7079 26.4992 30.7176C25.8973 30.723 25.3223 30.9674 24.9005 31.3969C24.4788 31.8263 24.2449 32.4058 24.2503 33.0077C24.2558 33.6096 24.5001 34.1846 24.9296 34.6064C25.3591 35.0281 25.9385 35.262 26.5404 35.2566C26.8451 35.2746 27.1502 35.2289 27.4362 35.1223C27.7222 35.0156 27.9828 34.8505 28.2013 34.6373C28.4198 34.4242 28.5913 34.1677 28.705 33.8844C28.8187 33.6012 28.8719 33.2973 28.8613 32.9922Z" fill="#1A365D"/>
<path d="M84.353 38.3757C79.2995 38.3757 74.251 38.4014 69.2026 38.3757C67.8894 38.3853 66.6191 37.9084 65.6366 37.0371C64.6541 36.1657 64.0288 34.9615 63.8814 33.6566C63.7056 32.358 64.0044 31.0397 64.723 29.9438C65.4415 28.848 66.5315 28.0485 67.7925 27.6921C69.1054 27.3454 70.5013 27.5163 71.6918 28.1695C72.8823 28.8227 73.7764 29.9082 74.1893 31.2019C75.0332 33.775 75.0333 33.775 77.7659 33.775L247.098 33.7286C248.852 33.7286 249.99 34.5984 250 35.9364C250.01 37.2744 248.785 38.3705 247.072 38.3808C241.926 38.3808 236.779 38.3808 84.353 38.3808V38.3757ZM71.4875 33.1626C71.4614 32.5471 71.21 31.9627 70.7811 31.5206C70.3522 31.0784 69.7758 30.8093 69.1614 30.7644C68.8698 30.7305 68.5742 30.7583 68.294 30.8459C68.0138 30.9336 67.7551 31.0792 67.5348 31.2733C67.3145 31.4674 67.1374 31.7057 67.0152 31.9727C66.8929 32.2396 66.8281 32.5293 66.825 32.8229C66.7995 33.1268 66.8385 33.4326 66.9395 33.7204C67.0406 34.0081 67.2014 34.2712 67.4114 34.4924C67.6214 34.7135 67.8758 34.8877 68.1579 35.0036C68.44 35.1194 68.7434 35.1742 69.0482 35.1644C69.6351 35.2203 70.2201 35.0408 70.6747 34.6654C71.1292 34.29 71.416 33.7494 71.4721 33.1626H71.4875Z" fill="#1A365D"/>
<path d="M72.3522 18.0941C75.0951 18.0941 77.8381 18.1456 80.5861 18.0941C81.7646 18.0581 82.2278 18.3566 82.1814 19.638C82.0837 22.031 82.2072 24.4343 82.13 26.8427C82.1043 27.5529 82.7167 28.7211 81.5124 28.9012C80.4112 29.071 79.14 29.3849 78.3836 27.8359C77.5445 26.2181 76.2793 24.8603 74.7246 23.9093C73.3712 23.0131 71.7831 22.5368 70.1599 22.5405C68.0088 22.5405 65.8525 22.489 63.6962 22.5405C62.7648 22.5405 62.4354 22.242 62.4303 21.2642C62.4303 18.1353 62.3737 18.1302 65.4614 18.1302H72.3625L72.3522 18.0941ZM78.3321 23.6881C79.2327 23.6366 79.8296 23.2146 79.7936 22.2523C79.7951 22.0657 79.7575 21.8809 79.6833 21.7097C79.6091 21.5386 79.4999 21.3848 79.3627 21.2583C79.2256 21.1318 79.0635 21.0354 78.8869 20.9753C78.7103 20.9151 78.5231 20.8926 78.3372 20.9091C78.1393 20.8926 77.9402 20.9196 77.7538 20.9881C77.5674 21.0565 77.3982 21.1649 77.2581 21.3055C77.1179 21.4462 77.0101 21.6158 76.9423 21.8024C76.8745 21.989 76.8482 22.1882 76.8654 22.3861C76.8809 23.2712 77.4572 23.6675 78.3321 23.6881Z" fill="#1A365D"/>
<path d="M71.2969 5.12564C72.8768 5.22856 74.4567 5.34178 76.0366 5.41898C76.5049 5.41898 77.0144 5.55277 77.4107 5.15651C79.0994 7.25576 80.3379 9.68022 81.049 12.2789C81.2909 13.0817 81.049 13.1795 80.3543 13.1743C74.7192 13.1743 69.0841 13.1743 63.449 13.1743C62.5123 13.1743 62.4815 12.7318 62.4557 12.0062C62.3683 9.71095 62.7851 7.41059 62.3991 5.12052C63.6754 4.6728 65.0186 5.21314 66.3051 4.85291C65.5075 5.99537 65.2759 7.17385 66.1301 8.38835C66.5986 9.02216 67.2834 9.46193 68.0547 9.62415C68.826 9.78637 69.6299 9.65977 70.314 9.26837C71.8219 8.43983 72.1358 7.10179 71.2969 5.12564Z" fill="#4299E1"/>
<path d="M60.6598 38.2983H35.0367C35.6646 36.9243 36.4725 35.7252 36.771 34.3512C36.8894 33.7954 37.332 33.888 37.6973 33.8777C39.411 33.8263 41.1196 33.7697 42.8436 33.7697C47.7376 33.7697 52.6214 33.8108 57.5309 33.8108C58.3337 33.8108 58.91 33.852 59.0438 34.8812C59.224 36.0443 59.8415 37.0632 60.6598 38.2983Z" fill="#1A365D"/>
<path d="M57.6798 28.6796C57.2732 28.2834 57.4019 27.7688 57.4019 27.2953C57.4019 21.1507 57.4019 15.0079 57.4019 8.86671C57.4019 8.39326 57.2784 7.8735 57.7107 7.49268C57.6901 14.5533 57.6798 21.6156 57.6798 28.6796Z" fill="#1483B0"/>
<path d="M18.816 5.41904C19.1477 4.9988 19.5785 4.66742 20.0698 4.45457C20.5611 4.24171 21.0975 4.15403 21.631 4.19939C28.9249 4.24742 36.2171 4.24742 43.5075 4.19939C44.584 4.11013 45.6534 4.44018 46.4923 5.12059C47.4907 7.38492 46.3946 9.23756 43.9758 9.23756C36.4932 9.27873 29.0106 9.30103 21.528 9.30447C19.3512 9.32505 18.2293 7.68338 18.816 5.41904Z" fill="white"/>
<path d="M16.6393 23.4159C16.1247 23.4159 15.5638 23.4159 15.0286 23.4159C14.2103 23.4467 14.0919 22.9475 14.0868 22.2837C14.0817 21.6198 14.2772 21.2545 14.9977 21.2956C16.0681 21.3265 17.1402 21.3265 18.2141 21.2956C18.914 21.2956 19.161 21.5838 19.1352 22.258C19.1095 22.9321 19.1352 23.4622 18.2449 23.4107C17.7303 23.3747 17.1745 23.4107 16.6393 23.4107V23.4159Z" fill="white"/>
<path d="M71.297 5.12533C72.1358 7.11177 71.8116 8.43951 70.3141 9.28349C69.63 9.67488 68.826 9.80149 68.0548 9.63927C67.2835 9.47705 66.5986 9.03731 66.1302 8.4035C65.2965 7.189 65.5075 6.01048 66.3052 4.86802C68.5335 3.56603 69.4238 3.61235 71.297 5.12533Z" fill="white"/>
<path d="M28.8617 32.9927C28.8722 33.2977 28.819 33.6016 28.7053 33.8849C28.5916 34.1682 28.4201 34.4246 28.2016 34.6378C27.9831 34.8509 27.7225 35.0161 27.4365 35.1228C27.1505 35.2294 26.8454 35.2751 26.5407 35.257C26.094 35.2469 25.6601 35.1051 25.2937 34.8494C24.9272 34.5937 24.6443 34.2356 24.4806 33.8198C24.3168 33.404 24.2794 32.9491 24.3732 32.5122C24.4669 32.0753 24.6875 31.6757 25.0073 31.3637C25.3272 31.0516 25.7321 30.8409 26.1712 30.758C26.6103 30.6751 27.0641 30.7237 27.4757 30.8977C27.8873 31.0716 28.2384 31.3633 28.485 31.7359C28.7315 32.1086 28.8626 32.5458 28.8617 32.9927Z" fill="white"/>
<path d="M71.4718 33.1621C71.4454 33.4551 71.3611 33.7398 71.2239 33.9999C71.0867 34.2601 70.8992 34.4904 70.6723 34.6775C70.4454 34.8647 70.1837 35.005 69.9022 35.0902C69.6207 35.1755 69.3251 35.2041 69.0325 35.1743C68.7277 35.1841 68.4243 35.1293 68.1422 35.0134C67.8601 34.8976 67.6057 34.7234 67.3957 34.5022C67.1857 34.2811 67.0249 34.018 66.9239 33.7302C66.8228 33.4425 66.7838 33.1367 66.8093 32.8328C66.8124 32.5392 66.8772 32.2495 66.9995 31.9825C67.1218 31.7156 67.2988 31.4773 67.5191 31.2832C67.7394 31.0891 67.9981 30.9435 68.2783 30.8558C68.5585 30.7681 68.8541 30.7404 69.1457 30.7743C69.7584 30.8189 70.3334 31.0866 70.7621 31.5266C71.1907 31.9666 71.4432 32.5485 71.4718 33.1621Z" fill="white"/>
<path d="M78.3319 23.6879C77.457 23.6879 76.8806 23.271 76.8652 22.3859C76.848 22.1881 76.8743 21.9888 76.9421 21.8022C77.0099 21.6156 77.1177 21.446 77.2578 21.3053C77.398 21.1647 77.5672 21.0563 77.7536 20.9879C77.94 20.9194 78.1391 20.8925 78.337 20.9089C78.5229 20.8924 78.7101 20.915 78.8867 20.9751C79.0633 21.0352 79.2254 21.1316 79.3625 21.2581C79.4997 21.3846 79.6089 21.5384 79.6831 21.7095C79.7573 21.8807 79.7948 22.0655 79.7934 22.2521C79.8088 23.2144 79.2325 23.6364 78.3319 23.6879Z" fill="white"/>
<path d="M110.151 14.1722H95.104C94.8931 14.1741 94.6915 14.2593 94.543 14.4091C94.3946 14.5589 94.3113 14.7613 94.3113 14.9723V17.244C94.3113 17.4552 94.3952 17.6578 94.5445 17.8071C94.6939 17.9565 94.8965 18.0404 95.1077 18.0404H100.374C100.394 18.0413 100.413 18.0497 100.428 18.064C100.442 18.0782 100.45 18.0973 100.451 18.1175V34.3903C100.451 34.6019 100.535 34.8048 100.684 34.9548C100.834 35.1047 101.036 35.1894 101.248 35.1904H104.026C104.238 35.1894 104.441 35.1048 104.59 34.955C104.74 34.8052 104.825 34.6022 104.826 34.3903V18.1175C104.826 18.097 104.834 18.0774 104.848 18.063C104.863 18.0485 104.883 18.0404 104.903 18.0404H110.166C110.377 18.0404 110.58 17.9566 110.73 17.8074C110.88 17.6581 110.965 17.4556 110.966 17.244V14.9723C110.965 14.8661 110.944 14.7611 110.903 14.6632C110.861 14.5654 110.801 14.4768 110.725 14.4024C110.649 14.328 110.56 14.2693 110.461 14.2298C110.363 14.1903 110.257 14.1707 110.151 14.1722Z" fill="#1A365D"/>
<path d="M123.713 26.852C123.707 26.8422 123.703 26.8306 123.703 26.8188C123.703 26.8069 123.707 26.7953 123.713 26.7855C123.719 26.7725 123.729 26.7612 123.74 26.7526C123.752 26.7441 123.765 26.7385 123.779 26.7364C125.152 26.5345 126.408 25.8506 127.325 24.8063C128.414 23.6606 129.025 22.1403 129.032 20.5572C129.058 19.6936 128.895 18.8347 128.554 18.0412C128.214 17.2478 127.704 16.539 127.06 15.9649C125.897 14.8554 124.358 14.2296 122.753 14.2134H114.279C114.078 14.2143 113.886 14.2952 113.744 14.4383C113.602 14.5814 113.522 14.7751 113.522 14.977V33.5112C113.522 33.7131 113.602 33.9068 113.744 34.0499C113.886 34.193 114.078 34.2739 114.279 34.2748H116.939C117.14 34.2739 117.333 34.1931 117.476 34.0501C117.618 33.9071 117.699 33.7134 117.7 33.5112V25.2792C117.698 25.2636 117.702 25.2481 117.711 25.2353C117.72 25.2224 117.734 25.2132 117.749 25.2092C117.763 25.2026 117.779 25.2015 117.793 25.206C117.808 25.2105 117.821 25.2204 117.829 25.2337L124.533 33.9911C124.605 34.0832 124.697 34.1579 124.801 34.2095C124.906 34.261 125.021 34.2882 125.137 34.2888H127.852C127.994 34.2885 128.133 34.2485 128.253 34.1734C128.373 34.0983 128.47 33.9909 128.533 33.8635C128.596 33.7361 128.622 33.5937 128.608 33.4522C128.595 33.3108 128.542 33.1759 128.456 33.0628L123.713 26.852ZM117.682 17.9721C117.682 17.9526 117.69 17.9338 117.704 17.92C117.717 17.9062 117.736 17.8985 117.756 17.8985H122.23C122.902 17.9046 123.549 18.1604 124.045 18.6166C124.319 18.8562 124.535 19.1557 124.677 19.492C124.819 19.8283 124.882 20.1927 124.861 20.5572C124.874 20.9109 124.807 21.2629 124.665 21.5868C124.523 21.9108 124.31 22.1983 124.041 22.4278C123.552 22.8955 122.905 23.1597 122.23 23.1669H117.756C117.736 23.1669 117.717 23.1592 117.704 23.1454C117.69 23.1316 117.682 23.1129 117.682 23.0934V17.9721Z" fill="#1A365D"/>
<path d="M133.842 14.2134H131.527C131.159 14.2134 130.86 14.5555 130.86 14.9776V33.5246C130.86 33.9467 131.159 34.2888 131.527 34.2888H133.842C134.211 34.2888 134.51 33.9467 134.51 33.5246V14.9776C134.51 14.5555 134.211 14.2134 133.842 14.2134Z" fill="#1A365D"/>
<path d="M150.801 15.9661C149.638 14.8553 148.098 14.2289 146.492 14.2134H138.005C137.804 14.2143 137.611 14.2952 137.469 14.4384C137.327 14.5816 137.247 14.7755 137.247 14.9776V33.5246C137.247 33.7267 137.327 33.9205 137.469 34.0637C137.611 34.207 137.804 34.2879 138.005 34.2888H140.649C140.85 34.2879 141.044 34.2071 141.186 34.064C141.329 33.9208 141.409 33.727 141.41 33.5246V26.9345C141.41 26.9149 141.418 26.8962 141.432 26.8824C141.445 26.8686 141.464 26.8609 141.484 26.8609H146.474C148.088 26.8487 149.637 26.2223 150.808 25.1082C151.444 24.5399 151.947 23.8392 152.284 23.055C152.62 22.2708 152.782 21.4222 152.757 20.5687C152.783 19.705 152.622 18.8461 152.284 18.0514C151.946 17.2566 151.44 16.5451 150.801 15.9661ZM141.428 17.9677C141.428 17.9481 141.435 17.9294 141.449 17.9156C141.463 17.9018 141.482 17.894 141.501 17.894H145.978C146.651 17.9002 147.298 18.1562 147.794 18.6126C148.069 18.8525 148.285 19.1521 148.427 19.4887C148.569 19.8252 148.632 20.1899 148.612 20.5547C148.624 20.9086 148.557 21.2608 148.415 21.585C148.273 21.9091 148.06 22.1968 147.791 22.4265C147.302 22.8945 146.654 23.1589 145.978 23.1662H141.484C141.464 23.1662 141.445 23.1584 141.432 23.1446C141.418 23.1308 141.41 23.1121 141.41 23.0926L141.428 17.9677Z" fill="#1A365D"/>
<path d="M169.323 14.2134H154.462C154.253 14.2143 154.052 14.2951 153.905 14.4382C153.757 14.5813 153.674 14.7752 153.673 14.9776V17.1474C153.674 17.3495 153.757 17.5429 153.905 17.6855C154.053 17.828 154.253 17.9081 154.462 17.9081H159.652C159.672 17.9089 159.691 17.9169 159.705 17.9306C159.719 17.9442 159.727 17.9624 159.728 17.9817V33.5246C159.728 33.7267 159.811 33.9205 159.958 34.0637C160.105 34.207 160.305 34.2879 160.513 34.2888H163.253C163.462 34.2879 163.663 34.2071 163.81 34.064C163.958 33.9208 164.041 33.727 164.042 33.5246V17.9817C164.042 17.9622 164.05 17.9434 164.065 17.9296C164.079 17.9158 164.098 17.9081 164.118 17.9081H169.309C169.517 17.9081 169.718 17.828 169.866 17.6855C170.013 17.5429 170.097 17.3495 170.098 17.1474V14.9776C170.097 14.7776 170.016 14.5858 169.871 14.4431C169.726 14.3004 169.53 14.2179 169.323 14.2134Z" fill="#1A365D"/>
<path d="M181.202 26.8518C181.195 26.842 181.192 26.8304 181.192 26.8185C181.192 26.8067 181.195 26.7951 181.202 26.7853C181.208 26.7722 181.217 26.761 181.229 26.7524C181.24 26.7438 181.254 26.7383 181.268 26.7362C182.64 26.5343 183.897 25.8504 184.814 24.8061C185.904 23.6614 186.515 22.1406 186.521 20.5571C186.547 19.6935 186.384 18.8347 186.043 18.0412C185.702 17.2477 185.192 16.5389 184.549 15.9648C183.386 14.8554 181.847 14.2296 180.242 14.2134H171.771C171.57 14.2143 171.377 14.2951 171.234 14.4381C171.092 14.5811 171.011 14.7748 171.011 14.977V33.5108C171.011 33.7131 171.092 33.9067 171.234 34.0498C171.377 34.1928 171.57 34.2735 171.771 34.2744H174.41C174.611 34.2735 174.804 34.1928 174.947 34.0498C175.089 33.9067 175.17 33.7131 175.171 33.5108V25.279C175.169 25.2634 175.174 25.2479 175.183 25.2351C175.191 25.2223 175.205 25.213 175.22 25.209C175.234 25.2024 175.25 25.2013 175.264 25.2058C175.279 25.2103 175.292 25.2202 175.3 25.2335L182.008 33.9907C182.079 34.0832 182.169 34.1582 182.274 34.2098C182.378 34.2614 182.492 34.2883 182.608 34.2884H185.324C185.468 34.2929 185.611 34.2553 185.735 34.18C185.859 34.1048 185.958 33.9953 186.022 33.8646C186.085 33.737 186.111 33.5943 186.097 33.4525C186.084 33.3108 186.031 33.1757 185.945 33.0624L181.202 26.8518ZM175.16 17.972C175.16 17.9525 175.168 17.9338 175.182 17.92C175.196 17.9062 175.214 17.8984 175.234 17.8984H179.708C180.381 17.9032 181.028 18.1592 181.523 18.6165C181.798 18.8556 182.015 19.155 182.156 19.4914C182.298 19.8279 182.361 20.1925 182.34 20.5571C182.352 20.9108 182.285 21.2628 182.143 21.5867C182.001 21.9106 181.788 22.1981 181.519 22.4277C181.031 22.8954 180.383 23.1595 179.708 23.1668H175.244C175.225 23.1668 175.206 23.159 175.192 23.1452C175.179 23.1314 175.171 23.1127 175.171 23.0932L175.16 17.972Z" fill="#1A365D"/>
<path d="M241.923 15.9661C240.691 14.8559 239.06 14.2296 237.36 14.2134H228.393C228.179 14.2143 227.975 14.2951 227.824 14.4382C227.673 14.5813 227.587 14.7752 227.587 14.9776V33.5246C227.587 33.727 227.673 33.9208 227.824 34.064C227.975 34.2071 228.179 34.2879 228.393 34.2888H231.192C231.405 34.2879 231.609 34.207 231.76 34.0637C231.91 33.9205 231.994 33.7267 231.994 33.5246V26.9345C231.994 26.9149 232.003 26.8962 232.017 26.8824C232.032 26.8686 232.052 26.8609 232.072 26.8609H237.36C239.068 26.8493 240.707 26.2227 241.946 25.1082C242.619 24.5404 243.152 23.8397 243.509 23.0554C243.865 22.2711 244.036 21.4223 244.009 20.5687C244.035 19.704 243.861 18.8444 243.501 18.0495C243.141 17.2547 242.603 16.5438 241.923 15.9661ZM239.601 20.5547C239.615 20.9083 239.544 21.2604 239.395 21.5845C239.245 21.9086 239.02 22.1965 238.736 22.4265C238.218 22.894 237.532 23.1582 236.817 23.1662H232.072C232.062 23.1662 232.052 23.1643 232.042 23.1606C232.033 23.1569 232.024 23.1514 232.017 23.1446C232.01 23.1378 232.004 23.1296 232 23.1207C231.996 23.1118 231.994 23.1022 231.994 23.0926V17.9677C231.995 17.9484 232.004 17.9302 232.018 17.9166C232.033 17.9029 232.052 17.8949 232.072 17.894H236.817C237.529 17.9002 238.214 18.1562 238.74 18.6126C239.03 18.8526 239.258 19.1524 239.408 19.489C239.557 19.8256 239.623 20.1901 239.601 20.5547Z" fill="#1A365D"/>
<path d="M223.488 16.505C221.442 14.4518 218.686 13.3008 215.815 13.3008C212.943 13.3008 210.187 14.4518 208.142 16.505C207.757 16.8882 207.398 17.2977 207.068 17.7304C206.738 17.2979 206.379 16.8896 205.993 16.5086C203.948 14.4554 201.192 13.3044 198.321 13.3044C195.449 13.3044 192.693 14.4554 190.648 16.5086C189.631 17.5154 188.823 18.7195 188.272 20.0498C187.72 21.38 187.436 22.8095 187.436 24.2536C187.436 25.6977 187.72 27.1271 188.272 28.4574C188.823 29.7876 189.631 30.9917 190.648 31.9985C192.693 34.0508 195.449 35.2012 198.321 35.2012C201.192 35.2012 203.948 34.0508 205.993 31.9985C206.378 31.6167 206.737 31.2085 207.068 30.7767C207.397 31.2091 207.756 31.6173 208.142 31.9985C210.187 34.0508 212.943 35.2012 215.815 35.2012C218.686 35.2012 221.442 34.0508 223.488 31.9985C224.497 30.988 225.298 29.7829 225.845 28.4534C226.393 27.124 226.674 25.6969 226.674 24.2554C226.674 22.8139 226.393 21.3868 225.845 20.0574C225.298 18.728 224.497 17.5228 223.488 16.5123V16.505ZM198.296 17.1432C199.171 17.1398 200.038 17.3233 200.839 17.6821C201.641 18.0408 202.36 18.5667 202.95 19.2258C204.213 20.5813 204.918 22.3791 204.918 24.2481C204.918 26.1171 204.213 27.9149 202.95 29.2704C202.36 29.9285 201.64 30.4535 200.839 30.8115C200.037 31.1696 199.171 31.3528 198.296 31.3493C197.419 31.3587 196.551 31.1782 195.749 30.8198C194.946 30.4614 194.228 29.9332 193.641 29.2704C192.393 27.906 191.7 26.1108 191.7 24.2463C191.7 22.3818 192.393 20.5865 193.641 19.2222C194.228 18.5601 194.947 18.0324 195.749 17.674C196.552 17.3157 197.419 17.1348 198.296 17.1432ZM215.768 17.1432C216.644 17.1398 217.51 17.3233 218.312 17.6821C219.114 18.0408 219.833 18.5667 220.423 19.2258C221.686 20.5813 222.39 22.3791 222.39 24.2481C222.39 26.1171 221.686 27.9149 220.423 29.2704C219.832 29.9285 219.113 30.4535 218.311 30.8115C217.51 31.1696 216.643 31.3528 215.768 31.3493C214.892 31.3587 214.024 31.1782 213.221 30.8198C212.419 30.4614 211.7 29.9332 211.114 29.2704C209.868 27.9048 209.176 26.1101 209.176 24.2463C209.176 22.3825 209.868 20.5877 211.114 19.2222C211.702 18.5587 212.422 18.0302 213.227 17.6718C214.031 17.3134 214.901 17.1332 215.779 17.1432H215.768Z" fill="#4299E1"/>
</svg>
